<svg width="26" height="32" viewBox="0 0 26 32" fill="none" xmlns="http://www.w3.org/2000/svg">
<path d="M23.3104 11.0699L22.0251 9.77708L20.9626 10.8443L22.2479 12.1386L23.3104 11.0699ZM24.9647 10.0992L22.9887 8.11318L21.9262 9.18039L23.9022 11.1679L24.9647 10.0992ZM25.9048 9.80973L23.278 7.16619L22.8766 7.56992L25.5048 10.212L25.9048 9.80973ZM3.88114 9.77708L2.59579 11.0699L3.65831 12.1386L4.94366 10.8443L3.88114 9.77708ZM2.9175 8.11318L0.941508 10.0992L2.00403 11.1679L3.98001 9.18039L2.9175 8.11318ZM2.62825 7.16619L0 9.80973L0.401395 10.212L3.02965 7.56992L2.62825 7.16619ZM15.0479 3.33374H14.6524V5.00357H15.0479V3.33374ZM14.4163 3.33374H14.0208V5.00357H14.4163V3.33374ZM13.7832 3.33374H13.3877V5.00357H13.7832V3.33374ZM13.1501 3.33374H12.7546V5.00357H13.1501V3.33374ZM12.5185 3.33374H12.123V5.00357H12.5185V3.33374ZM11.8854 3.33374H11.4899V5.00357H11.8854V3.33374ZM11.2524 3.33374H10.8569V5.00357H11.2524V3.33374ZM14.0798 7.10682V5.28262H11.8264V7.10682C10.5293 6.64075 9.59955 5.39246 9.59955 3.93042C9.59955 2.0706 11.1033 0.556612 12.9524 0.556612C14.8029 0.556612 16.3067 2.0706 16.3067 3.93042C16.3067 5.39246 15.3755 6.64075 14.0798 7.10682ZM16.8601 3.93042C16.8601 1.76335 15.1069 0 12.9524 0C10.7993 0 9.04615 1.76335 9.04615 3.93042C9.04615 5.70416 10.2194 7.20627 11.8264 7.69312V7.95436H14.0798V7.69312C15.6869 7.20627 16.8601 5.70416 16.8601 3.93042ZM12.9524 9.97894C7.3535 9.97894 2.79649 14.561 2.79649 20.1939C2.79649 25.8268 7.3535 30.4088 12.9524 30.4088C18.5527 30.4088 23.1098 25.8268 23.1098 20.1939C23.1098 14.561 18.5527 9.97894 12.9524 9.97894ZM12.9524 32C6.48136 32 1.21599 26.704 1.21599 20.1939C1.21599 13.6838 6.48136 8.38777 12.9524 8.38777C19.4249 8.38777 24.6902 13.6838 24.6902 20.1939C24.6902 26.704 19.4249 32 12.9524 32Z" fill="white"/>
<path d="M12.9521 11.4285V20.5713L17.5236 12.6544C16.178 11.8745 14.6168 11.4285 12.9521 11.4285Z" fill="#42FF54"/>
</svg>
