<svg width="23" height="24" viewBox="0 0 23 24" fill="none" xmlns="http://www.w3.org/2000/svg">
<path d="M14.1639 11.9994C14.1639 13.5734 12.8879 14.8494 11.3139 14.8494C9.73986 14.8494 8.46387 13.5734 8.46387 11.9994C8.46387 10.4254 9.73986 9.14941 11.3139 9.14941C12.8879 9.14941 14.1639 10.4254 14.1639 11.9994Z" stroke="white" stroke-width="1.5"/>
<path d="M13.145 0.875377L13.1448 0.875321C13.0314 0.828318 12.8727 0.791272 12.5761 0.771065C12.2729 0.750405 11.8833 0.75 11.3138 0.75C10.7444 0.75 10.3548 0.750405 10.0516 0.771065C9.75497 0.791272 9.5963 0.828318 9.48281 0.875321L9.48268 0.875376C9.28235 0.958299 9.10033 1.07989 8.94702 1.2332C8.79381 1.38642 8.67227 1.56831 8.58935 1.76849C8.53125 1.90955 8.49031 2.1134 8.47429 2.54049C8.46298 2.99433 8.33702 3.43796 8.10808 3.83006C7.87815 4.22383 7.55192 4.55271 7.16001 4.7858L7.15176 4.79071L7.14338 4.79541C6.74555 5.01843 6.29756 5.13666 5.84149 5.13899C5.38728 5.14131 4.93991 5.0286 4.54106 4.81139C4.16233 4.61102 3.9672 4.54515 3.81391 4.52473C3.38095 4.46793 2.94315 4.58508 2.59643 4.85047C2.49824 4.92673 2.38634 5.04702 2.221 5.2929C2.05135 5.5452 1.85575 5.88248 1.57131 6.37505C1.28631 6.86861 1.09173 7.20573 0.957821 7.4787C0.826959 7.74548 0.780106 7.90076 0.764448 8.02204L0.76418 8.02411C0.735827 8.23898 0.750087 8.45733 0.806142 8.66669L0.0816619 8.86067L0.806143 8.6667C0.862115 8.87574 0.958665 9.07174 1.09029 9.24351C1.18449 9.3655 1.34019 9.5015 1.70601 9.73173C2.47256 10.2131 2.98942 11.0502 2.98942 12C2.98942 12.9489 2.47339 13.786 1.70669 14.2666C1.33805 14.4998 1.1833 14.635 1.09133 14.7551L1.09088 14.7557C0.958953 14.9277 0.862199 15.1239 0.806143 15.3333L0.083102 15.1397L0.806142 15.3333C0.750089 15.5427 0.735828 15.761 0.764174 15.9759L13.145 0.875377ZM13.145 0.875377C13.3453 0.958299 13.5273 1.07989 13.6806 1.2332C13.8339 1.38651 13.9555 1.56853 14.0384 1.76885L14.0392 1.77068C14.097 1.90928 14.1372 2.10933 14.1534 2.54047C14.1647 2.99431 14.2906 3.43795 14.5196 3.83006C14.7495 4.22383 15.0757 4.55271 15.4676 4.7858L15.476 4.79078L15.4845 4.79554C15.8821 5.01827 16.3298 5.13633 16.7856 5.13866C17.2393 5.14098 17.6863 5.02849 18.0848 4.81171C18.4653 4.61101 18.6605 4.54509 18.8128 4.52469C19.0275 4.49643 19.2457 4.51071 19.4549 4.56672C19.664 4.62269 19.8599 4.71923 20.0317 4.85085C20.1299 4.92681 20.2417 5.04664 20.4072 5.2929C20.577 5.54535 20.7725 5.88243 21.0577 6.37534C21.3416 6.86797 21.5356 7.20545 21.6692 7.47848C21.8 7.74572 21.8474 7.90201 21.8635 8.02411C21.8918 8.23898 21.8776 8.45734 21.8215 8.66669C21.7655 8.87605 21.6687 9.07232 21.5368 9.24428L21.5363 9.24487C21.4444 9.36497 21.2897 9.5001 20.9212 9.73322C20.1544 10.2138 19.6382 11.051 19.6382 12H19.6382L19.6383 12.0096C19.6441 12.4657 19.7659 12.9128 19.992 13.309C20.2171 13.7032 20.5383 14.0341 20.9256 14.2708C21.2885 14.4994 21.4434 14.6349 21.5373 14.7564C21.6689 14.9282 21.7655 15.1242 21.8215 15.3333C21.8776 15.5427 21.8918 15.761 21.8635 15.9759L21.8632 15.978C21.8475 16.0992 21.8007 16.2545 21.6698 16.5213C21.5359 16.7943 21.3413 17.1314 21.0563 17.625C20.7716 18.1181 20.5764 18.4554 20.4068 18.7079C20.2411 18.9548 20.1297 19.0739 20.0323 19.1487C19.8604 19.2805 19.6642 19.3772 19.4549 19.4333L19.6489 20.1578L19.4549 19.4333C19.2458 19.4893 19.0277 19.5036 18.8131 19.4754C18.6609 19.455 18.4657 19.3892 18.0866 19.1886C17.6877 18.9714 17.2404 18.8587 16.7862 18.861C16.3301 18.8633 15.8821 18.9816 15.4843 19.2046L15.4842 19.2045L15.4759 19.2094C14.6547 19.6837 14.1862 20.549 14.1535 21.4548C14.1376 21.8859 14.0967 22.0897 14.0384 22.2314C13.9554 22.4316 13.8339 22.6135 13.6806 22.7668C13.5273 22.9201 13.3453 23.0417 13.145 23.1246L13.1448 23.1247C13.0314 23.1717 12.8727 23.2087 12.5761 23.2289C12.2729 23.2496 11.8833 23.25 11.3138 23.25C10.7444 23.25 10.3548 23.2496 10.0516 23.2289C9.75497 23.2087 9.5963 23.1717 9.48281 23.1247L9.48267 23.1246C9.28235 23.0417 9.10033 22.9201 8.94702 22.7668C8.79371 22.6135 8.67212 22.4315 8.5892 22.2311L8.58844 22.2293C8.53043 22.0902 8.49012 21.8892 8.47412 21.4548C8.44138 20.5482 7.97241 19.6851 7.15277 19.2099L7.15281 19.2099M13.145 0.875377L7.15281 19.2099M7.15281 19.2099L7.14338 19.2046M7.15281 19.2099L7.14338 19.2046M7.14338 19.2046C6.74555 18.9816 6.29756 18.8633 5.8415 18.861C5.38729 18.8587 4.93992 18.9714 4.54108 19.1886C4.16201 19.3892 3.96679 19.455 3.81454 19.4753C3.59992 19.5036 3.38184 19.4893 3.17273 19.4333L2.97875 20.1578L3.17273 19.4333C2.9637 19.3773 2.76772 19.2808 2.59596 19.1492C2.49772 19.0732 2.386 18.9534 2.2204 18.7071C2.05066 18.4547 1.8552 18.1176 1.56999 17.6247M7.14338 19.2046L1.56999 17.6247M1.56999 17.6247C1.28611 17.1321 1.09205 16.7946 0.958451 16.5215C0.827703 16.2543 0.780299 16.098 0.764178 15.9759L1.56999 17.6247ZM11.3138 24C12.4322 24 12.9914 24 13.4318 23.8176L8.41669 23.2971C8.63969 23.5201 8.90444 23.697 9.19582 23.8176C9.63622 24 10.1954 24 11.3138 24Z" stroke="white" stroke-width="1.5"/>
</svg>
