<svg width="28" height="28" viewBox="0 0 28 28" fill="none" xmlns="http://www.w3.org/2000/svg">
<path d="M14.8005 20.4002C14.5667 20.634 14.2856 20.7499 13.9418 20.7499C13.598 20.7499 13.317 20.634 13.0832 20.4002C12.8494 20.1664 12.7335 19.8854 12.7335 19.5416C12.7335 19.1978 12.8494 18.9168 13.0832 18.6829C13.317 18.4491 13.598 18.3332 13.9418 18.3332C14.2856 18.3332 14.5667 18.4491 14.8005 18.6829C15.0343 18.9168 15.1502 19.1978 15.1502 19.5416C15.1502 19.8854 15.0343 20.1664 14.8005 20.4002ZM14.8039 16.2582H13.1439C13.1589 15.3702 13.2555 14.7942 13.4071 14.4909C13.4889 14.3274 13.6504 14.1069 13.9075 13.826C14.1615 13.5484 14.4988 13.2226 14.9215 12.8478C15.286 12.5437 15.5928 12.2118 15.8397 11.8517C16.0997 11.4725 16.2335 11.0591 16.2335 10.6166C16.2335 10.1377 16.0487 9.70493 15.7013 9.32497C15.328 8.91662 14.7836 8.73325 14.1168 8.73325C13.3678 8.73325 12.7662 8.95353 12.3644 9.4357C12.088 9.76729 11.88 10.0906 11.7498 10.4053L10.2932 9.83149C10.5598 9.15495 10.9873 8.56695 11.5803 8.06587C12.2159 7.52875 13.0537 7.24992 14.1168 7.24992C15.1583 7.24992 16.0484 7.5279 16.7984 8.07667C17.524 8.60761 17.8918 9.36464 17.8918 10.3833C17.8918 10.9861 17.7552 11.4868 17.4936 11.8967C17.2147 12.3336 16.8296 12.8 16.3343 13.2956C15.6553 13.9361 15.2044 14.474 15.0364 14.8998C14.8952 15.2575 14.8209 15.7136 14.8039 16.2582ZM14.0002 25.4166C12.4188 25.4166 10.936 25.1167 9.54921 24.5183C8.15756 23.9178 6.94951 23.104 5.92277 22.0773C4.89603 21.0506 4.08229 19.8425 3.48179 18.4509C2.88338 17.0641 2.5835 15.5813 2.5835 13.9999C2.5835 12.4186 2.88338 10.9358 3.48179 9.54897C4.08229 8.15732 4.89603 6.94927 5.92277 5.92253C6.94951 4.89579 8.15756 4.08205 9.54921 3.48154C10.936 2.88313 12.4188 2.58325 14.0002 2.58325C15.5815 2.58325 17.0643 2.88313 18.4511 3.48154C19.8428 4.08205 21.0508 4.89579 22.0775 5.92253C23.1043 6.94927 23.918 8.15732 24.5185 9.54897C25.1169 10.9358 25.4168 12.4186 25.4168 13.9999C25.4168 15.5813 25.1169 17.0641 24.5185 18.4509C23.918 19.8425 23.1043 21.0506 22.0775 22.0773C21.0508 23.104 19.8428 23.9178 18.4511 24.5183C17.0643 25.1167 15.5815 25.4166 14.0002 25.4166ZM14.0002 23.5832C16.6706 23.5832 18.9416 22.6537 20.7978 20.7975C22.654 18.9413 23.5835 16.6704 23.5835 13.9999C23.5835 11.3295 22.654 9.05851 20.7978 7.20231C18.9416 5.34611 16.6706 4.41658 14.0002 4.41658C11.3297 4.41658 9.05875 5.34611 7.20255 7.20231C5.34635 9.05851 4.41683 11.3295 4.41683 13.9999C4.41683 16.6704 5.34635 18.9413 7.20255 20.7975C9.05875 22.6537 11.3297 23.5832 14.0002 23.5832Z" fill="white" stroke="#14270C" stroke-width="0.5"/>
</svg>
