<svg width="36" height="36" viewBox="0 0 36 36" fill="none" xmlns="http://www.w3.org/2000/svg">
<path d="M19.5 28.5C19.5 29.55 19.695 30.555 20.025 31.5H7.5C6.70435 31.5 5.94129 31.1839 5.37868 30.6213C4.81607 30.0587 4.5 29.2957 4.5 28.5V7.5C4.5 5.85 5.85 4.5 7.5 4.5H28.5C29.2957 4.5 30.0587 4.81607 30.6213 5.37868C31.1839 5.94129 31.5 6.70435 31.5 7.5V20.025C30.555 19.695 29.55 19.5 28.5 19.5V7.5H7.5V28.5H19.5ZM20.94 18.435L16.815 23.745L13.875 20.205L9.75 25.5H20.025C20.625 23.82 21.705 22.365 23.1 21.315L20.94 18.435ZM30 27V22.5H27V27H22.5V30H27V34.5H30V30H34.5V27H30Z" fill="white"/>
</svg>
